<svg width="1700" height="53" viewBox="0 0 1700 53" fill="none" xmlns="http://www.w3.org/2000/svg">
<path d="M1699.5 52.8107C1699.46 52.8108 1699.42 52.8061 1699.38 52.7967L1557.8 18.0877C1464.86 -4.69595 1367.8 -4.69595 1274.87 18.0877C1228.49 29.4507 1180.91 35.1973 1133.17 35.2037C1085.42 35.1973 1037.84 29.4507 991.465 18.0877C898.531 -4.69591 801.469 -4.69591 708.535 18.0877C662.159 29.4508 614.584 35.1973 566.835 35.2037C519.087 35.1973 471.512 29.4507 425.135 18.0877C332.201 -4.69595 235.139 -4.69595 142.205 18.0877L0.613353 52.7967C0.485167 52.8268 0.350255 52.8052 0.237915 52.7365C0.125576 52.6678 0.0448801 52.5575 0.013353 52.4297C-0.0168467 52.3016 0.004638 52.1668 0.0731498 52.0545C0.141662 51.9422 0.251679 51.8614 0.379353 51.8297L141.962 17.1207C235.051 -5.70018 332.274 -5.70018 425.362 17.1207C471.663 28.4636 519.159 34.199 566.828 34.2037C614.498 34.1975 661.995 28.4603 708.295 17.1157C801.384 -5.70523 898.607 -5.70523 991.695 17.1157C1038 28.4602 1085.49 34.1973 1133.16 34.2037C1180.83 34.1973 1228.32 28.4601 1274.62 17.1157C1367.71 -5.70519 1464.94 -5.70519 1558.02 17.1157L1699.61 51.8247C1699.73 51.8534 1699.83 51.9249 1699.9 52.0254C1699.97 52.1259 1700 52.2485 1699.99 52.3701C1699.97 52.4916 1699.91 52.6036 1699.82 52.6848C1699.73 52.766 1699.61 52.8108 1699.49 52.8107H1699.5Z" fill="white"/>
</svg>
