<svg width="51" height="53" viewBox="0 0 51 53" fill="none" xmlns="http://www.w3.org/2000/svg">
<mask id="path-1-inside-1_1_2087" fill="white">
<path d="M22.0518 51.043C18.644 49.5449 15.3964 47.7061 12.3588 45.5542L11.5488 45.023C11.189 44.7287 10.7577 44.5348 10.2988 44.461C9.97071 44.4916 9.66152 44.6283 9.41782 44.8501C8.29082 45.6661 7.12679 46.3692 5.78079 47.1822C5.16879 47.5512 4.53578 47.933 3.85678 48.355C3.68975 48.4588 3.49588 48.5113 3.29935 48.5054C3.10281 48.4995 2.91234 48.4358 2.7518 48.3223C2.59075 48.2087 2.46689 48.05 2.39572 47.8662C2.32455 47.6825 2.30929 47.4815 2.35184 47.2891C3.98184 39.9371 5.4938 33.1204 7.0618 26.0494C7.09121 25.9162 7.14753 25.7903 7.22732 25.6797C7.30712 25.5691 7.40869 25.4762 7.52579 25.4063C7.64321 25.3368 7.77362 25.2921 7.90897 25.2749C8.04431 25.2577 8.18177 25.2683 8.31283 25.3062L29.1068 31.2461C29.2846 31.2968 29.445 31.396 29.57 31.5323C29.695 31.6685 29.7797 31.8365 29.8148 32.0181C29.8497 32.1994 29.8337 32.3868 29.7685 32.5596C29.7034 32.7324 29.5917 32.8839 29.4458 32.9971L23.3908 37.6973C25.2982 38.2163 27.265 38.485 29.2418 38.4971C32.9561 38.4753 36.5943 37.4415 39.7648 35.5064C43.1419 33.4225 46.2104 30.8754 48.8808 27.94C49.0364 27.7775 49.2423 27.6727 49.4651 27.6416C49.6879 27.6106 49.9147 27.6553 50.1088 27.7691C50.303 27.8834 50.453 28.0599 50.5343 28.2701C50.6156 28.4802 50.6235 28.712 50.5568 28.9273C49.4953 32.5935 48.1032 36.1558 46.3978 39.5703C44.6348 43.0522 42.1668 46.1291 39.1508 48.606C36.2553 51.0428 32.5972 52.3878 28.8128 52.4063C26.4931 52.3851 24.1985 51.9223 22.0518 51.043ZM12.6458 43.3501L13.4588 43.8853C16.3848 45.9596 19.5114 47.7349 22.7918 49.1851C24.7044 49.9713 26.749 50.3868 28.8168 50.4092C32.1445 50.3853 35.3585 49.1959 37.8998 47.0474C40.7029 44.7414 42.9955 41.8772 44.6318 38.6372C45.6928 36.5733 46.6058 34.4366 47.3638 32.2432C45.3557 34.1406 43.147 35.8135 40.7768 37.2329C37.3008 39.3485 33.3139 40.4767 29.2448 40.4961C26.4126 40.4658 23.6045 39.9724 20.9318 39.0352C20.7606 38.9773 20.6082 38.8744 20.4909 38.7369C20.3737 38.5993 20.2958 38.4322 20.2658 38.2539C20.2359 38.0757 20.2549 37.893 20.3208 37.7246C20.3866 37.5563 20.4969 37.409 20.6398 37.2984L26.6628 32.6231L8.78482 27.5161C7.46282 33.4821 6.17383 39.2923 4.81283 45.4273C6.09383 44.6553 7.2038 43.9841 8.2438 43.2271C8.82679 42.7538 9.54834 42.4838 10.2988 42.458C11.1513 42.5192 11.968 42.8294 12.6458 43.3501ZM42.4178 27.0713L40.2118 26.4361L21.6628 21.0953C21.4855 21.0441 21.3258 20.9449 21.2014 20.8086C21.077 20.6724 20.9926 20.5045 20.9578 20.3233C20.9229 20.1419 20.9389 19.9546 21.0041 19.7818C21.0692 19.609 21.1809 19.4575 21.3268 19.3443L27.2548 14.7442C25.4861 14.0664 23.6058 13.7272 21.7118 13.7442C18.221 13.8139 14.7986 14.726 11.7358 16.4024C7.89826 18.491 4.51136 21.3174 1.7698 24.7193C1.62304 24.8962 1.41985 25.0169 1.19437 25.0616C0.968885 25.1062 0.734909 25.0721 0.531829 24.9644C0.328571 24.8567 0.16863 24.6821 0.0790089 24.4703C-0.0106122 24.2584 -0.0244376 24.0222 0.0398244 23.8013C0.904513 20.6985 2.01603 17.6697 3.3638 14.7442C4.73353 11.7741 6.5121 9.01038 8.6478 6.53324C10.3611 4.51845 12.4591 2.86574 14.8188 1.67142C17.058 0.567041 19.5221 -0.00522927 22.0188 3.60061e-05C24.9068 0.0433811 27.7532 0.694647 30.3728 1.91117C33.0909 3.22661 35.6796 4.79428 38.1048 6.5933C38.5448 6.8933 38.9968 7.21215 39.4408 7.51615C39.7188 7.74805 40.0484 7.91008 40.4018 7.98832C40.6227 7.96042 40.8308 7.86962 41.0018 7.72709C42.2598 6.85509 43.5748 6.04312 44.9688 5.18412C45.5938 4.80112 46.2378 4.40209 46.9138 3.97709C47.081 3.8717 47.2756 3.81812 47.4732 3.82328C47.6707 3.82844 47.8624 3.89241 48.0238 4.00638C48.1852 4.12013 48.3093 4.27874 48.3805 4.46293C48.4517 4.64712 48.4668 4.84832 48.4238 5.04105L43.6708 26.3272C43.6412 26.4605 43.5845 26.5862 43.5044 26.6968C43.4242 26.8074 43.3223 26.9006 43.2048 26.9703C43.0502 27.0612 42.8741 27.1093 42.6948 27.1094C42.6011 27.1098 42.5079 27.0969 42.4178 27.0713ZM29.6398 13.6421C29.7872 13.721 29.9125 13.8354 30.0042 13.9751C30.0959 14.1149 30.1512 14.2758 30.1648 14.4424C30.1793 14.6087 30.152 14.7757 30.0852 14.9287C30.0185 15.0818 29.9145 15.2159 29.7828 15.3184L24.1088 19.7183L40.7648 24.5181L41.9508 24.8594L45.9508 6.92826C44.6058 7.75826 43.3338 8.54411 42.1408 9.37211C41.6402 9.75377 41.033 9.96996 40.4038 9.99027C39.639 9.93613 38.9093 9.64866 38.3128 9.16703C37.8638 8.85803 37.4078 8.54234 36.9668 8.23734C34.6421 6.51236 32.1629 5.00595 29.5608 3.73734C27.1971 2.63617 24.6281 2.04436 22.0208 2.00101C19.8295 1.99625 17.6668 2.49761 15.7008 3.46537C13.5796 4.5433 11.6944 6.03315 10.1558 7.84818C8.14137 10.1858 6.46441 12.7942 5.1738 15.5972C4.5178 16.9862 3.91079 18.4642 3.32779 20.0972C5.55112 17.9325 8.06859 16.0922 10.8058 14.6304C14.1556 12.8027 17.8975 11.8118 21.7128 11.7422C24.4716 11.7092 27.1954 12.3626 29.6398 13.6421Z"/>
</mask>
<path d="M22.0518 51.043C18.644 49.5449 15.3964 47.7061 12.3588 45.5542L11.5488 45.023C11.189 44.7287 10.7577 44.5348 10.2988 44.461C9.97071 44.4916 9.66152 44.6283 9.41782 44.8501C8.29082 45.6661 7.12679 46.3692 5.78079 47.1822C5.16879 47.5512 4.53578 47.933 3.85678 48.355C3.68975 48.4588 3.49588 48.5113 3.29935 48.5054C3.10281 48.4995 2.91234 48.4358 2.7518 48.3223C2.59075 48.2087 2.46689 48.05 2.39572 47.8662C2.32455 47.6825 2.30929 47.4815 2.35184 47.2891C3.98184 39.9371 5.4938 33.1204 7.0618 26.0494C7.09121 25.9162 7.14753 25.7903 7.22732 25.6797C7.30712 25.5691 7.40869 25.4762 7.52579 25.4063C7.64321 25.3368 7.77362 25.2921 7.90897 25.2749C8.04431 25.2577 8.18177 25.2683 8.31283 25.3062L29.1068 31.2461C29.2846 31.2968 29.445 31.396 29.57 31.5323C29.695 31.6685 29.7797 31.8365 29.8148 32.0181C29.8497 32.1994 29.8337 32.3868 29.7685 32.5596C29.7034 32.7324 29.5917 32.8839 29.4458 32.9971L23.3908 37.6973C25.2982 38.2163 27.265 38.485 29.2418 38.4971C32.9561 38.4753 36.5943 37.4415 39.7648 35.5064C43.1419 33.4225 46.2104 30.8754 48.8808 27.94C49.0364 27.7775 49.2423 27.6727 49.4651 27.6416C49.6879 27.6106 49.9147 27.6553 50.1088 27.7691C50.303 27.8834 50.453 28.0599 50.5343 28.2701C50.6156 28.4802 50.6235 28.712 50.5568 28.9273C49.4953 32.5935 48.1032 36.1558 46.3978 39.5703C44.6348 43.0522 42.1668 46.1291 39.1508 48.606C36.2553 51.0428 32.5972 52.3878 28.8128 52.4063C26.4931 52.3851 24.1985 51.9223 22.0518 51.043ZM12.6458 43.3501L13.4588 43.8853C16.3848 45.9596 19.5114 47.7349 22.7918 49.1851C24.7044 49.9713 26.749 50.3868 28.8168 50.4092C32.1445 50.3853 35.3585 49.1959 37.8998 47.0474C40.7029 44.7414 42.9955 41.8772 44.6318 38.6372C45.6928 36.5733 46.6058 34.4366 47.3638 32.2432C45.3557 34.1406 43.147 35.8135 40.7768 37.2329C37.3008 39.3485 33.3139 40.4767 29.2448 40.4961C26.4126 40.4658 23.6045 39.9724 20.9318 39.0352C20.7606 38.9773 20.6082 38.8744 20.4909 38.7369C20.3737 38.5993 20.2958 38.4322 20.2658 38.2539C20.2359 38.0757 20.2549 37.893 20.3208 37.7246C20.3866 37.5563 20.4969 37.409 20.6398 37.2984L26.6628 32.6231L8.78482 27.5161C7.46282 33.4821 6.17383 39.2923 4.81283 45.4273C6.09383 44.6553 7.2038 43.9841 8.2438 43.2271C8.82679 42.7538 9.54834 42.4838 10.2988 42.458C11.1513 42.5192 11.968 42.8294 12.6458 43.3501ZM42.4178 27.0713L40.2118 26.4361L21.6628 21.0953C21.4855 21.0441 21.3258 20.9449 21.2014 20.8086C21.077 20.6724 20.9926 20.5045 20.9578 20.3233C20.9229 20.1419 20.9389 19.9546 21.0041 19.7818C21.0692 19.609 21.1809 19.4575 21.3268 19.3443L27.2548 14.7442C25.4861 14.0664 23.6058 13.7272 21.7118 13.7442C18.221 13.8139 14.7986 14.726 11.7358 16.4024C7.89826 18.491 4.51136 21.3174 1.7698 24.7193C1.62304 24.8962 1.41985 25.0169 1.19437 25.0616C0.968885 25.1062 0.734909 25.0721 0.531829 24.9644C0.328571 24.8567 0.16863 24.6821 0.0790089 24.4703C-0.0106122 24.2584 -0.0244376 24.0222 0.0398244 23.8013C0.904513 20.6985 2.01603 17.6697 3.3638 14.7442C4.73353 11.7741 6.5121 9.01038 8.6478 6.53324C10.3611 4.51845 12.4591 2.86574 14.8188 1.67142C17.058 0.567041 19.5221 -0.00522927 22.0188 3.60061e-05C24.9068 0.0433811 27.7532 0.694647 30.3728 1.91117C33.0909 3.22661 35.6796 4.79428 38.1048 6.5933C38.5448 6.8933 38.9968 7.21215 39.4408 7.51615C39.7188 7.74805 40.0484 7.91008 40.4018 7.98832C40.6227 7.96042 40.8308 7.86962 41.0018 7.72709C42.2598 6.85509 43.5748 6.04312 44.9688 5.18412C45.5938 4.80112 46.2378 4.40209 46.9138 3.97709C47.081 3.8717 47.2756 3.81812 47.4732 3.82328C47.6707 3.82844 47.8624 3.89241 48.0238 4.00638C48.1852 4.12013 48.3093 4.27874 48.3805 4.46293C48.4517 4.64712 48.4668 4.84832 48.4238 5.04105L43.6708 26.3272C43.6412 26.4605 43.5845 26.5862 43.5044 26.6968C43.4242 26.8074 43.3223 26.9006 43.2048 26.9703C43.0502 27.0612 42.8741 27.1093 42.6948 27.1094C42.6011 27.1098 42.5079 27.0969 42.4178 27.0713ZM29.6398 13.6421C29.7872 13.721 29.9125 13.8354 30.0042 13.9751C30.0959 14.1149 30.1512 14.2758 30.1648 14.4424C30.1793 14.6087 30.152 14.7757 30.0852 14.9287C30.0185 15.0818 29.9145 15.2159 29.7828 15.3184L24.1088 19.7183L40.7648 24.5181L41.9508 24.8594L45.9508 6.92826C44.6058 7.75826 43.3338 8.54411 42.1408 9.37211C41.6402 9.75377 41.033 9.96996 40.4038 9.99027C39.639 9.93613 38.9093 9.64866 38.3128 9.16703C37.8638 8.85803 37.4078 8.54234 36.9668 8.23734C34.6421 6.51236 32.1629 5.00595 29.5608 3.73734C27.1971 2.63617 24.6281 2.04436 22.0208 2.00101C19.8295 1.99625 17.6668 2.49761 15.7008 3.46537C13.5796 4.5433 11.6944 6.03315 10.1558 7.84818C8.14137 10.1858 6.46441 12.7942 5.1738 15.5972C4.5178 16.9862 3.91079 18.4642 3.32779 20.0972C5.55112 17.9325 8.06859 16.0922 10.8058 14.6304C14.1556 12.8027 17.8975 11.8118 21.7128 11.7422C24.4716 11.7092 27.1954 12.3626 29.6398 13.6421Z" fill="white" stroke="white" stroke-width="2" mask="url(#path-1-inside-1_1_2087)"/>
</svg>
