<svg width="45" height="52" viewBox="0 0 45 52" fill="none" xmlns="http://www.w3.org/2000/svg">
<path d="M18.7764 51.8504C18.5695 51.7405 18.4008 51.5707 18.2925 51.363C18.1841 51.1554 18.1413 50.9198 18.1694 50.6873C18.1774 49.0873 18.1694 47.4876 18.1694 45.8816V45.2815C15.2815 44.7591 12.5089 43.7292 9.98035 42.2395C7.42099 40.7755 5.22878 38.7476 3.57007 36.3098C1.91137 33.8721 0.829753 31.0883 0.407354 28.1702C0.156354 26.6822 0.118451 25.1572 0.0074515 23.6482C-0.0217039 23.4045 0.0352515 23.1584 0.168584 22.9524C0.301917 22.7464 0.503201 22.5935 0.737432 22.5203C0.957331 22.4368 1.19891 22.4301 1.4231 22.5012C1.64729 22.5724 1.84092 22.7173 1.97242 22.9124C2.09369 23.139 2.18099 23.3825 2.23145 23.6345C3.03688 27.2935 5.22671 30.4987 8.34241 32.5794C10.8086 34.1002 13.6857 34.819 16.5774 34.6365C17.0894 34.6215 17.6004 34.5902 18.1664 34.5652V33.9456C18.1664 32.3106 18.1664 30.6734 18.1664 29.0374C18.1368 28.8054 18.1784 28.5699 18.2855 28.3621C18.3927 28.1542 18.5603 27.9838 18.7664 27.8733C18.9767 27.771 19.213 27.7341 19.4446 27.7669C19.6762 27.7996 19.8927 27.9007 20.0664 28.0574C25.0664 31.6294 30.0694 35.1978 35.0754 38.7625C35.265 38.8539 35.425 38.9965 35.5371 39.1746C35.6492 39.3526 35.709 39.5589 35.7095 39.7693C35.71 39.9797 35.6513 40.1859 35.54 40.3645C35.4288 40.5431 35.2695 40.6872 35.0804 40.7796C30.0804 44.4096 25.0764 48.0364 20.0684 51.6604C19.8377 51.8498 19.5525 51.9605 19.2544 51.9763C19.0873 51.973 18.9234 51.9299 18.7764 51.8504ZM3.64844 31.7654C4.92691 35.0293 7.18858 37.8151 10.1204 39.7366C12.818 41.5429 15.8837 42.726 19.0953 43.2005C20.0953 43.3525 20.3504 43.6513 20.3534 44.6653C20.3534 45.4403 20.3534 46.2155 20.3534 46.9915V48.7522L32.7415 39.7776L20.3554 30.9456C20.3554 32.4526 20.3554 33.8122 20.3554 35.1702C20.3554 36.2152 20.0554 36.5864 19.0004 36.6384C17.4581 36.7649 15.9097 36.7984 14.3634 36.7385C10.5339 36.5429 6.93163 34.8614 4.32239 32.0515C4.05839 31.7725 3.80439 31.4835 3.54639 31.1995C3.53162 31.3927 3.56634 31.5864 3.64734 31.7625L3.64844 31.7654ZM36.6874 39.0154C36.5772 38.901 36.4918 38.765 36.4368 38.616C36.3817 38.4669 36.3582 38.3083 36.3676 38.1497C36.377 37.9911 36.4191 37.8361 36.4913 37.6946C36.5636 37.5531 36.6644 37.428 36.7874 37.3274C37.5634 36.4634 38.3194 35.5822 39.0874 34.7102L38.9874 34.5442H36.6024C35.4264 34.5442 34.2524 34.5345 33.0764 34.5525C32.8639 34.5581 32.6576 34.625 32.4824 34.7454C32.3063 34.8972 32.0858 34.9879 31.8539 35.0042C31.6219 35.0204 31.391 34.961 31.1954 34.8352C30.9931 34.7154 30.8374 34.5306 30.7537 34.3108C30.6699 34.091 30.6631 33.8494 30.7344 33.6253C31.0264 32.3533 31.3824 31.0914 31.5984 29.8054C31.8754 28.1474 32.0424 26.4714 32.2654 24.7454H23.5764C23.5764 25.4914 23.5764 26.2454 23.5764 26.9944C23.5764 27.2194 23.5873 27.4433 23.5693 27.6663C23.5589 27.9523 23.4359 28.2225 23.2271 28.4182C23.0182 28.614 22.7405 28.7193 22.4544 28.7112C22.1767 28.7036 21.9133 28.5869 21.7211 28.3865C21.5289 28.186 21.4233 27.9181 21.4274 27.6404C21.4074 26.8654 21.4204 26.0892 21.4204 25.3142V24.7322H12.8574C12.8954 25.3442 12.8884 25.9613 12.9804 26.5613C13.2704 28.4293 13.5855 30.2945 13.9135 32.1565C14.0465 32.9085 13.7853 33.4812 13.1733 33.6272C12.5063 33.7862 12.0044 33.4274 11.8134 32.6594C11.2104 30.1834 10.8405 27.6565 10.7084 25.1116C10.7024 24.9946 10.6874 24.8784 10.6704 24.7044H10.0984C8.12239 24.7044 6.14739 24.7044 4.17139 24.7044C3.91304 24.7337 3.65251 24.6727 3.43384 24.532C3.21517 24.3913 3.05184 24.1797 2.97144 23.9324C2.92008 23.7722 2.90679 23.6021 2.93262 23.4358C2.95846 23.2695 3.02268 23.1119 3.12024 22.9749C3.21781 22.8378 3.34601 22.7251 3.49463 22.6462C3.64326 22.5674 3.80824 22.5242 3.97645 22.5203C4.50145 22.4823 5.03145 22.5076 5.55945 22.5076H10.5294C10.7774 19.8846 11.0194 17.3076 11.2654 14.6956H10.6654C8.53641 14.6956 6.40735 14.7064 4.27735 14.6834C4.12156 14.662 3.96344 14.7005 3.83472 14.7908C3.706 14.8811 3.61624 15.0164 3.58338 15.1702C2.94982 16.8258 2.52233 18.5532 2.31043 20.3132C2.30729 20.5821 2.20788 20.8409 2.03028 21.0427C1.85268 21.2445 1.60864 21.376 1.34241 21.4133C1.11123 21.4469 0.875567 21.3996 0.675176 21.2796C0.474785 21.1595 0.321953 20.9738 0.242437 20.7542C0.163767 20.439 0.148741 20.1114 0.198369 19.7903C0.438499 17.7544 0.973443 15.7645 1.78638 13.8826C5.04338 6.52158 10.5863 1.96239 18.3973 0.390391C23.1797 -0.517706 28.1279 0.168503 32.4825 2.344C36.8372 4.51951 40.3576 8.06405 42.5034 12.4334C44.1812 15.6935 45.0384 19.3139 45.0007 22.9802C44.9631 26.6466 44.0317 30.2484 42.2874 33.4734C41.2538 35.4723 39.9102 37.2948 38.3064 38.8733C38.1893 39.0041 38.0475 39.1103 37.889 39.1858C37.7306 39.2613 37.5587 39.3046 37.3834 39.3132C37.121 39.3092 36.8716 39.2023 36.6874 39.0154ZM40.0874 32.3694C40.4104 32.3694 40.5284 32.2023 40.6484 31.9563C41.515 30.1984 42.1316 28.3278 42.4804 26.3992C42.5803 25.8542 42.6364 25.2993 42.7184 24.7063C39.9714 24.7063 37.3184 24.7064 34.6674 24.7004C34.3424 24.7004 34.3295 24.8802 34.3145 25.1262C34.2705 25.8462 34.2453 26.5714 34.1473 27.2844C33.9163 28.9494 33.6474 30.6094 33.3794 32.3294C33.454 32.3443 33.5294 32.3538 33.6054 32.3582H36.6884C37.8217 32.3608 38.9541 32.3647 40.0874 32.3694ZM34.0483 14.6956C33.9539 14.6985 33.8597 14.7071 33.7664 14.7214C34.0104 17.3214 34.2554 19.8953 34.4994 22.4793H42.7644C42.7804 22.4078 42.7914 22.3355 42.7974 22.2625C42.7538 19.7636 42.2413 17.2953 41.2864 14.9856C41.2306 14.9031 41.1564 14.8347 41.0696 14.7859C40.9828 14.7371 40.8858 14.7091 40.7864 14.7044C39.5624 14.6944 38.3384 14.6901 37.1144 14.6921L34.0483 14.6956ZM12.8334 22.4724H21.3814V14.7263H13.5894C13.0704 17.2756 12.8173 19.8719 12.8344 22.4734L12.8334 22.4724ZM23.6194 22.4666H32.2034C32.2154 19.8625 31.957 17.2638 31.4324 14.7131H23.6194V22.4666ZM29.5714 4.30543C31.1521 6.62322 32.3069 9.20435 32.9814 11.9275C32.9901 12.0213 33.0181 12.1123 33.0641 12.1946C33.11 12.2769 33.1728 12.3485 33.2482 12.405C33.3236 12.4616 33.41 12.5016 33.5018 12.5227C33.5937 12.5438 33.6889 12.5456 33.7814 12.5276C35.6704 12.4976 37.5624 12.5154 39.4514 12.5154H40.1254C37.6043 8.09909 33.5411 4.76933 28.7155 3.16529C29.0635 3.62429 29.3274 3.96243 29.5714 4.30543ZM11.2804 12.5242C11.369 12.5404 11.4601 12.5382 11.5477 12.5173C11.6354 12.4964 11.7177 12.4576 11.7894 12.4031C11.8612 12.3486 11.9209 12.2797 11.9646 12.2009C12.0083 12.1222 12.0351 12.0353 12.0433 11.9456C12.7999 8.83101 14.2045 5.91056 16.1654 3.37525C16.1884 3.34625 16.1834 3.29539 16.1934 3.2444C12.3994 4.00739 6.14237 9.14446 4.94837 12.5125C6.10737 12.5125 7.24841 12.5125 8.38941 12.5125C9.35441 12.5075 10.3184 12.5112 11.2804 12.5242ZM20.8684 12.5242C21.3324 12.5312 21.4314 12.3802 21.4294 11.9392C21.4114 8.90822 21.4193 5.87935 21.4183 2.85035C21.4183 2.69735 21.4054 2.5502 21.3954 2.3152C21.1014 2.4152 20.8424 2.48212 20.6014 2.58912C19.4345 3.13477 18.4223 3.96371 17.6574 5.00025C16.227 6.89397 15.1506 9.03078 14.4804 11.3074C14.3594 11.6784 14.2553 12.0522 14.1263 12.4832C14.3643 12.4982 14.5264 12.5144 14.6904 12.5144H16.5075H18.0244C18.9734 12.5084 19.9204 12.5102 20.8694 12.5222L20.8684 12.5242ZM23.6104 12.4802H30.8724C30.8452 12.3183 30.8074 12.1583 30.7594 12.0012C30.2424 10.6382 29.7884 9.24459 29.1834 7.92359C28.416 6.13351 27.2211 4.55867 25.7034 3.33815C25.0973 2.83794 24.3792 2.49197 23.6104 2.32936V12.4802Z" fill="white"/>
</svg>
