<svg width="52" height="43" viewBox="0 0 52 43" fill="none" xmlns="http://www.w3.org/2000/svg">
<path d="M38.716 42.7051C38.2047 42.4881 37.7503 42.1559 37.388 41.7349C37.2785 41.586 37.1249 41.4755 36.949 41.4189C36.7731 41.3624 36.5838 41.3627 36.408 41.4199C35.898 41.5679 35.392 41.7291 34.882 41.8701C34.372 42.0111 34.3731 42.0027 34.0961 41.4287L34.7561 41.2188C35.2561 41.0547 35.7561 40.8547 36.272 40.7397C36.83 40.6137 36.909 40.2557 36.948 39.7817C36.972 38.9963 37.0793 38.216 37.2681 37.4531C37.4723 36.8116 37.8035 36.2175 38.2419 35.7065C38.6803 35.1956 39.217 34.7783 39.8201 34.479C39.9671 34.419 40.1177 34.3679 40.271 34.3267C39.897 36.1267 39.913 37.9099 38.917 39.5049C39.672 38.9049 40.4631 38.3488 41.16 37.6938C41.2472 37.5481 41.3014 37.3848 41.3187 37.2158C41.336 37.0468 41.3159 36.8762 41.2601 36.7158C40.9114 35.6705 40.8357 34.5535 41.0401 33.4707C41.2445 32.3879 41.7223 31.3751 42.4281 30.5288C42.585 30.3587 42.752 30.1981 42.9281 30.0479C43.0711 31.9479 43.547 33.6719 43.128 35.4409L43.246 35.5039C43.7136 34.838 44.1442 34.1471 44.5361 33.4341C44.5659 33.2716 44.5624 33.1044 44.5258 32.9434C44.4892 32.7823 44.4202 32.6307 44.323 32.4971C43.7337 31.5471 43.3888 30.4658 43.319 29.3501C43.2492 28.2344 43.4567 27.119 43.923 26.103C43.9874 25.9399 44.0879 25.7934 44.2171 25.6748C44.9331 27.3688 45.827 28.9879 45.8241 30.9229C46.0441 30.2879 46.215 29.6299 46.495 29.0229C46.7206 28.5987 46.7779 28.1052 46.6553 27.6406C46.5328 27.1761 46.2395 26.7748 45.8341 26.5171C44.8126 25.5295 44.2143 24.1836 44.1651 22.7637C44.1236 22.031 44.1193 21.297 44.1521 20.564L44.413 20.4971C45.488 21.9211 46.77 23.2151 47.365 24.9971C47.408 24.0971 47.4651 23.2017 47.4851 22.3037C47.4837 22.1064 47.4218 21.9144 47.3077 21.7534C47.1936 21.5924 47.0328 21.4704 46.8471 21.4038C44.5201 20.2948 43.803 18.2638 43.589 15.9458C43.6028 15.8244 43.6292 15.7048 43.668 15.5889C44.963 16.6979 46.436 17.494 47.188 19.04L47.331 18.9917C47.146 18.0517 46.9861 17.1048 46.7521 16.1758C46.6917 16.0669 46.6068 15.9736 46.504 15.9033C46.4012 15.833 46.2834 15.7878 46.16 15.771C44.104 15.59 43.0421 14.2561 42.2481 12.5991C42.0662 12.229 41.9243 11.8402 41.8251 11.4399C43.3008 11.8287 44.6956 12.4772 45.944 13.355C45.6403 12.5774 45.293 11.8177 44.904 11.0791C44.787 10.8791 44.262 10.7919 43.952 10.8379C43.34 10.9307 42.7147 10.878 42.1268 10.6841C41.5388 10.4902 41.0048 10.1603 40.568 9.72168C40.1009 9.26216 39.7018 8.73853 39.383 8.16602C39.583 8.16602 39.7831 8.16602 39.9891 8.16602C41.2505 8.0596 42.5186 8.26978 43.6781 8.77783C43.2975 8.19258 42.8828 7.63019 42.4361 7.09375C42.3011 6.94775 41.8301 6.9678 41.5841 7.0708C40.7508 7.37507 39.841 7.39935 38.9927 7.13965C38.1445 6.87995 37.4041 6.35047 36.884 5.63184C36.8593 5.58854 36.8405 5.54194 36.828 5.49365C37.333 5.04565 39.564 4.8941 40.7421 5.2251C40.5627 4.90796 40.3169 4.63343 40.0213 4.42041C39.7258 4.20739 39.3876 4.06055 39.03 3.99072C38.3321 3.86448 37.6756 3.56955 37.1178 3.13135C36.56 2.69315 36.1179 2.12532 35.8301 1.47705C35.6372 1.05884 35.4669 0.630354 35.3201 0.193848C35.4141 0.139848 35.448 0.101887 35.469 0.108887C36.7783 0.367867 38.0033 0.946427 39.035 1.79297C39.2855 2.0095 39.4884 2.27546 39.6311 2.57422C39.7738 2.87298 39.8531 3.19792 39.8641 3.52881C39.8715 3.67534 39.9323 3.81423 40.035 3.91895C40.635 4.49895 41.246 5.06165 41.845 5.61865C41.0298 3.98481 40.7915 2.1234 41.1691 0.336914L41.331 0.251953C41.695 0.660953 42.089 1.05198 42.422 1.47998C43.2986 2.5449 43.7942 3.87217 43.8301 5.25098C43.8233 5.70221 43.7113 6.14555 43.503 6.5459C43.3771 6.75386 43.3174 6.99511 43.3317 7.23779C43.346 7.48047 43.4336 7.71303 43.5831 7.90479C44.0061 8.51478 44.4071 9.13874 44.8631 9.76074C44.422 7.98432 44.6722 6.10675 45.563 4.50781C45.673 4.60781 45.7701 4.652 45.8161 4.729C46.7587 6.34049 47.1714 8.20724 46.996 10.0659C46.9064 10.5611 46.6954 11.0263 46.382 11.4199C46.2653 11.563 46.1848 11.7322 46.1473 11.9131C46.1099 12.094 46.1166 12.2813 46.167 12.459C46.398 13.194 46.6951 13.9097 46.9971 14.6367C46.9154 13.7001 47.0391 12.7573 47.3597 11.8735C47.6803 10.9897 48.1899 10.1865 48.853 9.52002C49.0157 9.94023 49.1357 10.3756 49.211 10.8198C49.3024 12.0225 49.3275 13.2296 49.2861 14.4351C49.2526 14.8595 49.1343 15.273 48.9382 15.6509C48.742 16.0288 48.472 16.3632 48.1441 16.6348C47.9547 16.8037 47.8145 17.0207 47.7382 17.2627C47.662 17.5047 47.6526 17.7628 47.711 18.0098C47.811 18.7098 47.8641 19.4101 47.9671 20.1421C48.1365 19.199 48.4969 18.3004 49.026 17.5015C49.5551 16.7026 50.2418 16.0202 51.0441 15.4961C51.1013 15.6993 51.1431 15.9062 51.1691 16.1157C51.243 17.7738 50.8839 19.4228 50.1271 20.8999C49.983 21.2285 49.7703 21.5225 49.5033 21.7622C49.2363 22.0019 48.9212 22.182 48.5791 22.29C48.1441 22.416 48.101 22.7898 48.069 23.1338C47.979 24.0708 47.9201 25.0109 47.8511 25.9399C48.1371 25.5199 48.417 25.0616 48.744 24.6396C49.4545 23.7144 50.413 23.01 51.508 22.6079C51.6715 22.5664 51.8394 22.5443 52.008 22.542V23.1479C51.54 24.2029 51.1151 25.2787 50.5871 26.3047C50.3314 26.786 49.9696 27.2031 49.529 27.5239C49.0886 27.8314 48.585 28.0365 48.055 28.124C47.896 28.1286 47.7414 28.1777 47.6091 28.2661C47.4767 28.3546 47.3721 28.4788 47.3071 28.624C46.8701 29.73 46.4701 30.8478 46.0011 32.1108C46.5949 31.4046 47.3456 30.847 48.1932 30.4824C49.0408 30.1178 49.9619 29.9562 50.883 30.0107C50.767 30.4485 50.5931 30.8689 50.366 31.2607C49.7397 32.0989 49.0367 32.8772 48.266 33.585C47.8868 33.9131 47.4287 34.137 46.9368 34.2349C46.4449 34.3327 45.936 34.3012 45.46 34.1431C45.3087 34.1375 45.158 34.1664 45.0194 34.2275C44.8808 34.2887 44.758 34.3805 44.66 34.4961C44.087 35.2061 43.5831 35.9707 43.0061 36.7837C43.8285 36.3519 44.7427 36.124 45.6716 36.1191C46.6006 36.1143 47.5171 36.3327 48.344 36.7559C48.094 37.0769 47.8192 37.3777 47.522 37.6558C46.4158 38.6503 44.9796 39.1985 43.4921 39.1938C42.9677 39.0867 42.4576 38.9189 41.9721 38.6938C41.7191 38.6188 41.3601 38.494 41.1921 38.606C40.4551 39.084 39.7711 39.6377 38.9981 40.2188C39.904 40.0794 40.8299 40.1512 41.7035 40.4287C42.5771 40.7063 43.3747 41.1822 44.034 41.8188C43.8314 42.0105 43.6091 42.1803 43.371 42.3257C42.4789 42.7542 41.5047 42.9854 40.5151 43.0029C39.903 43.0047 39.2949 42.9041 38.716 42.7051ZM8.69304 42.3599C8.44556 42.2193 8.21129 42.0568 7.99306 41.874C8.62701 41.2238 9.40289 40.729 10.2599 40.4287C11.117 40.1284 12.0319 40.0307 12.9331 40.1431C12.6261 39.9361 12.313 39.743 12.016 39.521C11.6663 39.222 11.299 38.9442 10.9161 38.689C10.7041 38.568 10.284 38.4958 10.141 38.6138C9.76219 38.9137 9.31522 39.1158 8.83971 39.2017C8.3642 39.2875 7.87485 39.2545 7.41506 39.106C6.02711 38.8431 4.77381 38.1057 3.87004 37.02C3.81194 36.9297 3.75886 36.8359 3.71105 36.7397C4.52687 36.3196 5.43251 36.1042 6.35011 36.1113C7.26772 36.1185 8.16987 36.348 8.97905 36.7808C8.38705 35.9518 7.84806 35.1589 7.26406 34.3999C7.16711 34.2594 7.02356 34.1576 6.85884 34.1128C6.69412 34.068 6.51886 34.0828 6.36406 34.1548C6.00333 34.2743 5.62044 34.3117 5.24343 34.2642C4.86641 34.2166 4.50478 34.0852 4.18505 33.8799C2.9088 33.1476 1.90641 32.0189 1.33006 30.665C1.25562 30.4514 1.19744 30.2322 1.15605 30.0098C2.06728 29.959 2.97778 30.1212 3.81545 30.4834C4.65311 30.8456 5.39491 31.398 5.98204 32.0967C5.52104 30.8507 5.12906 29.7468 4.70006 28.6558C4.65197 28.4906 4.54669 28.3481 4.40306 28.2534C4.25944 28.1587 4.08684 28.1178 3.91606 28.1387C3.63213 28.1478 3.34956 28.0958 3.0876 27.9858C2.82565 27.8759 2.59046 27.711 2.39806 27.502C1.13627 26.2826 0.2989 24.6906 0.00905034 22.96C-0.00301678 22.7999 -0.00301678 22.6391 0.00905034 22.479C0.907819 22.741 1.74091 23.1901 2.45345 23.7974C3.16599 24.4046 3.74182 25.1561 4.14305 26.002C4.07205 25.057 4.00705 24.1459 3.93605 23.2349C3.94437 23.0004 3.87451 22.77 3.73747 22.5796C3.60044 22.3892 3.40403 22.2497 3.17906 22.1831C2.71392 21.9762 2.32362 21.631 2.06105 21.1948C1.12429 19.6188 0.692941 17.7935 0.82506 15.9648C0.849557 15.8062 0.886319 15.65 0.935045 15.4971C1.73822 16.0179 2.42795 16.6954 2.96288 17.4893C3.4978 18.2831 3.8669 19.1767 4.04805 20.1167C4.13505 19.2767 4.24806 18.4377 4.29106 17.5957C4.30038 17.3104 4.19607 17.0331 4.00105 16.8247C2.60105 15.5677 2.49004 13.9377 2.60604 12.2607C2.69398 11.4608 2.82756 10.6666 3.00606 9.88184C3.02206 9.79284 3.10606 9.71603 3.18706 9.58203C3.83657 10.2473 4.3363 11.0437 4.65279 11.918C4.96927 12.7922 5.09518 13.724 5.02205 14.6509C5.29805 13.8829 5.62204 13.1268 5.82204 12.3398C5.89104 12.0688 5.68705 11.719 5.57405 11.418C5.298 10.926 5.09201 10.3981 4.96205 9.84912C4.85674 8.15787 5.2219 6.4705 6.01705 4.97412C6.09905 4.81612 6.21705 4.67408 6.38005 4.43408C7.29503 6.0553 7.57006 7.96011 7.15105 9.77393C7.63205 9.04493 8.13904 8.33208 8.57704 7.58008C8.63797 7.46133 8.671 7.33021 8.6736 7.19678C8.6762 7.06334 8.64831 6.93109 8.59206 6.81006C8.33483 6.38193 8.17812 5.90081 8.13378 5.40332C8.08943 4.90583 8.15859 4.40487 8.33605 3.93799C8.74407 2.46402 9.59812 1.1525 10.7811 0.183105C11.1972 2.00811 10.9719 3.92078 10.1431 5.59912C10.7531 5.03112 11.397 4.43989 12.03 3.83789C12.0938 3.76122 12.1266 3.66357 12.1221 3.56396C12.1309 3.18163 12.2272 2.80618 12.4035 2.4668C12.5797 2.12741 12.8314 1.83309 13.1391 1.60596C14.2121 0.868399 15.4062 0.324867 16.667 0C16.4833 0.936338 16.0641 1.8105 15.4491 2.54004C14.7268 3.34435 13.7564 3.88369 12.6921 4.07275C12.1029 4.31396 11.579 4.69095 11.163 5.17285C12.55 4.73485 13.843 5.12875 15.263 5.36475C14.9499 5.879 14.5255 6.31672 14.021 6.64551C13.5166 6.97429 12.945 7.1857 12.348 7.26465C11.7562 7.31637 11.16 7.25882 10.589 7.09473C9.74404 6.86673 9.66704 6.84199 9.14604 7.56299C8.91004 7.89299 8.68506 8.23099 8.45506 8.56299C8.40907 8.63199 8.37105 8.70586 8.25505 8.90186C9.65505 8.06986 11.096 8.15694 12.543 8.06494C12.543 8.17294 12.568 8.2518 12.543 8.2998C12.2003 8.98013 11.6977 9.56715 11.0784 10.0107C10.4591 10.4543 9.74149 10.7411 8.98705 10.8467C8.59429 10.8663 8.20057 10.8455 7.81206 10.7847C7.61937 10.744 7.41843 10.7773 7.24913 10.8779C7.07983 10.9785 6.95453 11.1395 6.89806 11.3281C6.64206 12.0021 6.33504 12.6567 6.08104 13.3477C7.24304 12.3117 8.73004 11.9738 10.081 11.3618L10.2091 11.4717C10.0271 11.8917 9.86304 12.322 9.65904 12.73C9.27422 13.6808 8.61572 14.4957 7.76705 15.0718C7.28116 15.3477 6.75516 15.546 6.20806 15.6597C5.37606 15.8337 5.23704 15.896 5.07204 16.708C4.91335 17.47 4.79453 18.2393 4.71605 19.0137C5.52705 17.4957 7.00004 16.6897 8.23604 15.6367L8.40306 15.6929C8.34206 16.1929 8.31604 16.7039 8.21404 17.1929C7.97301 18.6441 7.20011 19.9534 6.04604 20.8657C5.7793 21.0495 5.49571 21.2078 5.19905 21.3379C4.96831 21.4277 4.77317 21.5905 4.64324 21.8013C4.5133 22.0121 4.45565 22.2593 4.47905 22.5059C4.53005 23.3279 4.56806 24.1507 4.66606 24.9937C5.18906 23.2097 6.48405 21.9297 7.53105 20.4937L7.71205 20.5107C7.76305 20.9407 7.85106 21.3707 7.86006 21.8027C7.91933 23.1094 7.58902 24.4044 6.91106 25.5229C6.56742 26.0248 6.17263 26.4893 5.73305 26.9097C5.50587 27.0831 5.34192 27.3269 5.26641 27.6025C5.19089 27.8782 5.20798 28.171 5.31505 28.436C5.63205 29.242 5.86106 30.08 6.17806 30.894C6.15006 28.987 7.03806 27.3639 7.67806 25.6689L7.86006 25.6411C8.06649 26.1 8.24512 26.5705 8.39504 27.0508C8.6657 27.9497 8.74 28.8965 8.61284 29.8267C8.48568 30.7568 8.16004 31.6486 7.65804 32.4419C7.48606 32.6533 7.3947 32.9189 7.40019 33.1914C7.40569 33.4639 7.50768 33.7254 7.68804 33.9297C8.07204 34.4137 8.38804 34.9508 8.78804 35.4448C8.42504 33.6598 8.90605 31.9396 9.02605 30.0566C9.19153 30.1698 9.34651 30.298 9.48906 30.439C10.2156 31.2796 10.7099 32.2953 10.9232 33.3857C11.1365 34.4762 11.0613 35.6033 10.7051 36.6558C10.5976 36.8775 10.5752 37.131 10.6421 37.3682C10.709 37.6054 10.8605 37.8099 11.068 37.9429C11.752 38.4299 12.401 38.9649 13.095 39.4429C12.3104 37.8523 11.8675 36.1149 11.7951 34.3428C12.4101 34.5355 12.9624 34.889 13.395 35.3667C13.9225 35.8697 14.3403 36.4768 14.6222 37.1489C14.9041 37.8211 15.0439 38.5441 15.033 39.2729C15.018 40.479 15.033 40.489 16.193 40.894C16.735 41.083 17.2931 41.226 17.8591 41.394C17.7421 41.824 17.5691 42.032 17.1171 41.874C16.6171 41.699 16.101 41.5651 15.594 41.4121C15.4145 41.3302 15.2108 41.3186 15.0234 41.3804C14.836 41.4421 14.6788 41.5726 14.5831 41.7451C14.3896 42.0282 14.1408 42.2687 13.8518 42.4531C13.5627 42.6375 13.2393 42.7618 12.901 42.8179C12.4337 42.921 11.9566 42.9736 11.478 42.9741C10.5162 42.9737 9.56592 42.7639 8.69304 42.3599ZM17.914 32.8398C17.7532 32.6615 17.6306 32.4522 17.5539 32.2246C17.4772 31.9971 17.448 31.7564 17.4681 31.5171V31.4561L17.7681 29.7559C17.9274 28.8645 18.0867 27.9701 18.246 27.0728C18.2871 26.8428 18.33 26.6148 18.374 26.3848C18.468 25.8848 18.556 25.4087 18.625 24.9307C17.102 23.4797 15.54 22.019 14.025 20.605L13.9361 20.522C13.6397 20.3064 13.4187 20.003 13.3044 19.6548C13.1901 19.3066 13.1882 18.9313 13.2991 18.582C13.4299 18.2567 13.6535 17.9767 13.9421 17.7773C14.2307 17.578 14.5714 17.4681 14.922 17.4609L14.9881 17.4531C15.9141 17.3271 16.8561 17.1948 17.7651 17.0688C18.9731 16.8998 20.222 16.726 21.451 16.561C22.112 15.249 22.795 13.9236 23.451 12.6396C23.7544 12.049 24.0574 11.4583 24.3601 10.8677C24.4861 10.5392 24.7065 10.2553 24.9935 10.0518C25.2806 9.8482 25.6213 9.73448 25.973 9.72412C26.3245 9.73387 26.6652 9.84753 26.9521 10.0508C27.239 10.254 27.4593 10.5374 27.585 10.8657L27.5921 10.876C27.9007 11.48 28.2104 12.0834 28.521 12.686C29.174 13.955 29.849 15.266 30.503 16.564C31.686 16.725 32.8861 16.8908 34.048 17.0508C35.0394 17.1888 36.03 17.3262 37.02 17.4629H37.0271C37.3807 17.468 37.7247 17.5786 38.0153 17.7803C38.3058 17.9819 38.5296 18.2652 38.658 18.5947C38.7642 18.9396 38.7613 19.3092 38.6496 19.6523C38.5379 19.9955 38.3229 20.2954 38.034 20.5117C37.404 21.0991 36.7754 21.6878 36.1481 22.2778C35.2241 23.1458 34.269 24.0438 33.322 24.9238C33.729 27.0748 34.1051 29.2007 34.4411 31.2397C34.5013 31.5751 34.4678 31.9207 34.3443 32.2383C34.2207 32.5559 34.012 32.8334 33.741 33.04C33.4712 33.1949 33.1641 33.2723 32.853 33.2646C32.5237 33.2669 32.198 33.1951 31.9 33.0547C30.177 32.2127 28.2911 31.2648 25.9721 30.0718C23.9671 31.1038 21.922 32.1338 20.012 33.0928C19.7185 33.2458 19.3931 33.328 19.0621 33.332C18.8473 33.3322 18.6348 33.2887 18.4375 33.2041C18.2401 33.1195 18.062 32.9954 17.914 32.8398ZM25.24 13.5591C24.575 14.8511 23.8891 16.1859 23.2251 17.5039C23.0965 17.787 22.8959 18.0315 22.6434 18.2129C22.391 18.3943 22.0954 18.5065 21.7861 18.5381C20.5401 18.7051 19.275 18.8827 18.051 19.0527C17.265 19.1607 16.451 19.2748 15.651 19.3848C17.113 20.7518 18.616 22.16 20.085 23.562C20.2795 23.7428 20.4304 23.9654 20.5265 24.2129C20.6226 24.4604 20.6615 24.7261 20.6401 24.9907C20.5611 25.5907 20.45 26.1858 20.34 26.7588C20.299 26.9818 20.2561 27.2047 20.2171 27.4277C20.0581 28.3227 19.8991 29.2189 19.7391 30.1099L19.5671 31.0801C21.3671 30.1801 23.2671 29.2187 25.1271 28.2607C25.3914 28.1175 25.6864 28.0402 25.987 28.0356C26.2848 28.0394 26.5772 28.1158 26.839 28.2578C29.028 29.3848 30.763 30.2581 32.397 31.0581C32.079 29.1581 31.7271 27.1878 31.3501 25.1958C31.2817 24.889 31.2986 24.5694 31.3989 24.2715C31.4992 23.9736 31.6791 23.7089 31.9191 23.5059C32.8791 22.6149 33.8511 21.7008 34.7911 20.8188C35.3017 20.3395 35.8127 19.8605 36.3241 19.3818L33.784 19.0298C32.589 18.8638 31.355 18.6918 30.141 18.5298C29.8483 18.4982 29.5687 18.3915 29.3292 18.2202C29.0897 18.0489 28.8985 17.8186 28.7741 17.5518C28.1081 16.2338 27.42 14.8951 26.754 13.6021L25.986 12.1021L25.24 13.5591Z" fill="white"/>
</svg>
