<svg width="51" height="51" viewBox="0 0 51 51" fill="none" xmlns="http://www.w3.org/2000/svg">
<path d="M24.409 51V31.5928H26.546C26.546 31.6518 26.554 31.711 26.554 31.772C26.554 38.1193 26.554 44.4669 26.554 50.8149C26.554 50.8769 26.547 50.938 26.544 51H24.409ZM10.967 42.1108C6.89701 38.5758 4.2328 33.696 3.46 28.3608H5.628C5.751 28.9298 5.858 29.4938 5.997 30.0518C6.77223 33.2095 8.30198 36.1322 10.455 38.5688C13.0583 41.5689 16.4866 43.7373 20.313 44.8032C21.028 45.0032 21.766 45.1332 22.491 45.3032C22.537 45.3152 22.609 45.3668 22.609 45.4028C22.617 46.0928 22.609 46.7819 22.609 47.5029C18.284 46.8839 14.2359 45.0096 10.967 42.1108ZM28.36 45.3271C32.6121 44.6484 36.5377 42.6335 39.568 39.5742C42.6262 36.5384 44.6399 32.6085 45.318 28.353H47.478C46.7775 33.1762 44.5382 37.6441 41.0934 41.0918C37.6486 44.5395 33.1825 46.7823 28.36 47.4868V45.3271ZM28.604 34.5962C28.604 34.5452 28.688 34.4732 28.747 34.4502C29.4924 34.1689 30.2001 33.796 30.854 33.3408C32.492 32.2156 33.7423 30.612 34.434 28.749C34.4439 28.702 34.4713 28.6605 34.5107 28.6328C34.55 28.6052 34.5984 28.5935 34.646 28.6001C35.291 28.6071 35.937 28.6001 36.581 28.6001H36.735C36.1859 30.5398 35.1495 32.3065 33.7245 33.7324C32.2995 35.1583 30.5333 36.1958 28.594 36.7461C28.597 36.0191 28.594 35.3081 28.604 34.6001V34.5962ZM14.224 28.6011H15.206C15.585 28.6011 15.964 28.6011 16.343 28.6011C16.3812 28.5954 16.4201 28.6046 16.4518 28.6265C16.4836 28.6484 16.5058 28.6815 16.514 28.7192C16.954 29.9131 17.6253 31.0079 18.4893 31.9419C19.3533 32.8759 20.393 33.6306 21.549 34.1621C21.777 34.2721 22.02 34.3521 22.249 34.4561C22.298 34.4791 22.364 34.5429 22.364 34.5889C22.371 35.2959 22.364 36.0039 22.364 36.7109C22.364 36.7209 22.354 36.7312 22.349 36.7412C20.4129 36.1896 18.6501 35.1519 17.228 33.7271C15.8059 32.3022 14.7718 30.5382 14.224 28.6011ZM25.486 28.7241C24.6281 28.7212 23.8063 28.3789 23.1999 27.772C22.5936 27.1651 22.2521 26.3427 22.25 25.4849C22.254 24.6273 22.597 23.8062 23.2042 23.2007C23.8114 22.5952 24.6335 22.2545 25.491 22.2529C25.9132 22.2551 26.3308 22.3414 26.7195 22.5063C27.1081 22.6713 27.4601 22.9117 27.755 23.2139C28.0499 23.5161 28.2817 23.874 28.4371 24.2666C28.5924 24.6592 28.6682 25.0788 28.66 25.501C28.6651 25.9213 28.587 26.3385 28.4302 26.7285C28.2733 27.1185 28.0407 27.4737 27.746 27.7734C27.4512 28.0731 27.1 28.3113 26.7126 28.4746C26.3252 28.6379 25.9094 28.7233 25.489 28.7251L25.486 28.7241ZM31.822 26.564H31.592V24.4141H50.999V26.5532C50.92 26.5532 50.842 26.5649 50.763 26.5649L31.822 26.564ZM0 26.5562V24.4268H19.366V26.5562H0ZM45.292 22.4658C44.7842 19.4115 43.5808 16.5151 41.775 14C40.1113 11.6593 37.9719 9.6967 35.497 8.24023C33.4747 7.0398 31.2574 6.20356 28.946 5.77002L28.369 5.66211V3.48682C32.469 4.06626 36.3253 5.78103 39.502 8.43701C43.8484 11.9985 46.7061 17.0564 47.514 22.6172C47.434 22.6172 47.38 22.625 47.324 22.625C46.714 22.625 46.102 22.625 45.492 22.625H45.483C45.36 22.628 45.314 22.5938 45.292 22.4658ZM5.52 22.627C4.864 22.627 4.208 22.627 3.552 22.627C3.5226 22.6231 3.49353 22.617 3.465 22.6089C4.19141 17.6312 6.56265 13.0398 10.201 9.56592C13.5902 6.28732 17.9314 4.16777 22.601 3.51123V5.66113C22.301 5.71813 22.001 5.77589 21.701 5.83789C19.0988 6.36879 16.6278 7.4105 14.431 8.90283C11.365 10.9594 8.91408 13.809 7.339 17.1479C6.53224 18.842 5.96836 20.6416 5.664 22.4932C5.648 22.5882 5.622 22.6309 5.524 22.6309L5.52 22.627ZM16.31 22.3809C15.665 22.3749 15.019 22.3809 14.375 22.3809H14.224C14.7753 20.4411 15.8132 18.6744 17.2393 17.2485C18.6653 15.8227 20.4321 14.785 22.372 14.2339V14.4209C22.372 15.0489 22.372 15.6772 22.372 16.3062C22.3805 16.3599 22.3683 16.4149 22.3378 16.46C22.3074 16.5051 22.261 16.5366 22.208 16.5488C20.9078 17.0319 19.727 17.7898 18.7461 18.7705C17.7652 19.7512 17.0073 20.9318 16.524 22.2319C16.5132 22.2785 16.486 22.3194 16.4475 22.3477C16.409 22.3759 16.3616 22.3899 16.314 22.3862L16.31 22.3809ZM34.448 22.248C33.963 20.9306 33.196 19.7352 32.2008 18.7451C31.2055 17.755 30.0059 16.9942 28.686 16.5161C28.66 16.5061 28.634 16.491 28.604 16.478V14.2412C30.5429 14.7894 32.309 15.8248 33.7343 17.249C35.1595 18.6732 36.1964 20.4385 36.746 22.377H36.038C35.574 22.377 35.11 22.377 34.646 22.377H34.638C34.5958 22.3825 34.553 22.3724 34.5176 22.3486C34.4823 22.3249 34.4568 22.2892 34.446 22.248H34.448ZM24.419 19.3828V0H26.546V19.3818L24.419 19.3828Z" fill="white"/>
</svg>
