<svg width="38" height="38" viewBox="0 0 38 38" fill="none" xmlns="http://www.w3.org/2000/svg">
<path d="M5.53053 31.6925C3.7886 29.98 2.40305 27.9396 1.45385 25.6888C0.504645 23.438 0.0105813 21.0216 0.000168113 18.5789C-0.0102451 16.1362 0.463199 13.7156 1.39318 11.4568C2.32316 9.19803 3.69126 7.14579 5.41852 5.41852C7.14579 3.69126 9.19803 2.32316 11.4568 1.39318C13.7156 0.463199 16.1362 -0.0102451 18.5789 0.000168113C21.0216 0.0105813 23.438 0.504645 25.6888 1.45385C27.9396 2.40305 29.98 3.7886 31.6925 5.53053C33.4345 7.24301 34.82 9.28351 35.7692 11.5343C36.7184 13.785 37.2125 16.2015 37.2229 18.6442C37.2333 21.0869 36.7599 23.5075 35.8299 25.7663C34.8999 28.025 33.5318 30.0773 31.8045 31.8045C30.0773 33.5318 28.025 34.8999 25.7663 35.8299C23.5075 36.7599 21.0869 37.2333 18.6442 37.2229C16.2015 37.2125 13.785 36.7184 11.5343 35.7692C9.28351 34.82 7.24301 33.4345 5.53053 31.6925ZM3.47553 18.6115C3.47553 21.6051 4.36324 24.5315 6.02641 27.0206C7.68957 29.5097 10.0535 31.4498 12.8192 32.5954C15.585 33.741 18.6283 34.0407 21.5644 33.4567C24.5005 32.8727 27.1975 31.4311 29.3143 29.3143C31.4311 27.1975 32.8727 24.5005 33.4567 21.5644C34.0407 18.6283 33.741 15.585 32.5954 12.8192C31.4498 10.0535 29.5097 7.68957 27.0206 6.02641C24.5315 4.36324 21.6051 3.47553 18.6115 3.47553C14.5987 3.48029 10.7515 5.0765 7.91402 7.91402C5.0765 10.7515 3.48029 14.5987 3.47553 18.6115ZM24.5855 23.4775L17.8605 20.1115C17.5812 19.9728 17.3461 19.7589 17.1817 19.494C17.0172 19.229 16.9299 18.9234 16.9295 18.6115V8.51853C16.9295 8.07244 17.1067 7.64461 17.4222 7.32918C17.7376 7.01374 18.1654 6.83653 18.6115 6.83653C19.0576 6.83653 19.4854 7.01374 19.8009 7.32918C20.1163 7.64461 20.2935 8.07244 20.2935 8.51853V17.5705L26.0935 20.4705C26.4327 20.6398 26.7046 20.9188 26.8653 21.2621C27.0259 21.6054 27.0658 21.9929 26.9785 22.3618C26.8912 22.7306 26.6818 23.0591 26.3842 23.294C26.0867 23.5288 25.7186 23.6562 25.3395 23.6555C25.0777 23.6566 24.8193 23.5956 24.5855 23.4775Z" fill="white"/>
</svg>
